<?xml version="1.0" standalone="no"?>
<!DOCTYPE svg PUBLIC "-//W3C//DTD SVG 20010904//EN"
 "http://www.w3.org/TR/2001/REC-SVG-20010904/DTD/svg10.dtd">
<svg version="1.0" xmlns="http://www.w3.org/2000/svg"
 width="1920.000000pt" height="1920.000000pt" viewBox="0 0 1920.000000 1920.000000"
 preserveAspectRatio="xMidYMid meet">
<metadata>
Created by potrace 1.11, written by Peter Selinger 2001-2013
</metadata>
<g transform="translate(0.000000,1920.000000) scale(0.100000,-0.100000)"
fill="#000000" stroke="none">
<path d="M9209 19180 c-2276 -98 -4376 -962 -6069 -2496 -322 -292 -729 -725
-1006 -1069 -1634 -2033 -2365 -4602 -2049 -7195 213 -1744 915 -3414 2013
-4790 431 -541 961 -1073 1487 -1496 2328 -1871 5368 -2552 8274 -1853 1497
360 2872 1075 4076 2122 190 165 700 676 871 872 1097 1260 1835 2733 2173
4335 393 1862 222 3827 -484 5570 -410 1014 -960 1906 -1698 2755 -165 190
-676 700 -872 871 -1630 1419 -3603 2231 -5745 2363 -240 15 -744 21 -971 11z
m866 -130 c1130 -60 2197 -304 3229 -741 241 -102 742 -349 951 -470 580 -333
1116 -715 1595 -1135 182 -160 581 -554 752 -743 773 -854 1369 -1810 1793
-2876 791 -1989 877 -4227 242 -6280 -561 -1811 -1652 -3408 -3143 -4601
-1987 -1589 -4547 -2307 -7084 -1988 -1878 236 -3620 1021 -5060 2280 -168
147 -691 668 -831 829 -500 572 -882 1115 -1222 1737 -587 1071 -971 2285
-1102 3487 -65 595 -72 1306 -19 1896 276 3095 2044 5839 4758 7387 1115 635
2386 1044 3661 1177 161 17 298 27 590 44 130 8 721 6 890 -3z"/>
<path d="M5400 15564 c-977 -602 -1767 -1266 -2156 -1813 -98 -137 -141 -214
-125 -219 38 -13 487 -331 801 -568 197 -147 513 -396 633 -497 l48 -41 17 24
c108 145 273 459 371 702 230 573 430 1392 556 2271 26 186 30 237 18 237 -5
0 -78 -43 -163 -96z"/>
<path d="M2995 13208 c3 -29 10 -120 15 -203 40 -566 142 -1312 256 -1867 41
-200 125 -554 159 -673 l15 -50 248 -23 c847 -79 1731 -228 2437 -411 105 -27
192 -47 194 -45 6 6 -61 166 -116 271 -350 680 -1169 1531 -2343 2433 -281
216 -844 620 -864 620 -3 0 -4 -24 -1 -52z"/>
<path d="M15305 11924 c-1794 -134 -3251 -482 -4047 -967 -408 -249 -670 -538
-771 -852 -43 -133 -52 -192 -51 -345 1 -224 52 -423 170 -665 125 -257 320
-492 503 -603 435 -265 998 -157 1708 330 806 552 1890 1725 2807 3036 l57 82
-98 -1 c-54 -1 -179 -8 -278 -15z"/>
<path d="M3345 10119 c-9 -13 342 -517 579 -834 327 -437 702 -885 974 -1167
l94 -97 51 24 c29 12 122 55 207 95 693 321 1565 650 2233 841 103 29 187 56
187 59 0 8 -196 125 -313 186 -677 353 -1808 644 -3162 814 -392 49 -843 91
-850 79z"/>
<path d="M9045 8954 c-819 -52 -1865 -339 -3080 -844 -287 -120 -813 -354
-844 -377 -11 -8 50 -39 289 -154 1190 -569 2276 -937 3125 -1058 452 -65 875
-52 1178 35 562 160 856 590 857 1251 0 83 -5 186 -11 228 -73 528 -421 831
-1038 905 -95 11 -385 20 -476 14z"/>
<path d="M11493 7245 c-221 -40 -415 -142 -594 -313 -246 -234 -435 -554 -505
-857 -24 -103 -25 -309 -2 -411 154 -682 1088 -1232 2737 -1614 669 -154 1508
-286 2256 -355 94 -8 191 -17 218 -20 30 -4 47 -2 47 5 0 15 -253 391 -423
629 -732 1023 -1514 1881 -2157 2365 -527 397 -979 588 -1383 585 -67 0 -154
-7 -194 -14z"/>
</g>
</svg>
