<svg width="563" height="375" viewBox="0 0 563 375" fill="none" xmlns="http://www.w3.org/2000/svg">
<rect width="562.5" height="375" fill="url(#paint0_linear_703_2)"/>
<path fill-rule="evenodd" clip-rule="evenodd" d="M270.296 107.848L249.129 129.014L232.866 112.751L273.324 72.2925L281.456 64.1608L289.587 72.2925L331.065 113.771L314.802 130.034L293.296 108.528V222.877H270.296V107.848ZM213.119 159.921C212.335 159.921 211.7 160.556 211.7 161.34V285.094C211.7 285.878 212.335 286.514 213.119 286.514H350.472C351.256 286.514 351.892 285.878 351.892 285.094V161.34C351.892 160.556 351.256 159.921 350.472 159.921H301.855V136.921H350.472C363.959 136.921 374.892 147.854 374.892 161.34V285.094C374.892 298.581 363.959 309.514 350.472 309.514H213.119C199.632 309.514 188.7 298.581 188.7 285.094V161.34C188.7 147.854 199.632 136.921 213.119 136.921H261.227V159.921H213.119Z" fill="white"/>
<defs>
<linearGradient id="paint0_linear_703_2" x1="0" y1="187" x2="562" y2="187" gradientUnits="userSpaceOnUse">
<stop stop-color="#eca81d"/>
<stop offset="1" stop-color="#fce862"/>
</linearGradient>
</defs>
</svg>
