<svg id="Ebene_2" data-name="Ebene 2" xmlns="http://www.w3.org/2000/svg" xmlns:xlink="http://www.w3.org/1999/xlink" viewBox="0 0 900 600"><defs><style>.cls-1{fill:url(#Unbenannter_Verlauf_15);}.cls-2{fill:#fff;}</style><linearGradient id="Unbenannter_Verlauf_15" x1="943.78" y1="479.72" x2="-43.78" y2="120.28" gradientUnits="userSpaceOnUse"><stop offset="0" stop-color="#fce862"/><stop offset="1" stop-color="#eca81d"/></linearGradient></defs><title>Web_Based</title><rect class="cls-1" width="900" height="600"/><path class="cls-2" d="M450.54,451.92c-14.83.33-28.17-57.67-28.17-57.67H384.54c.83,19.67,14.17,47.67,14.17,47.67-27.5,1-63.67-47.67-63.67-47.67H290.21s56.83,93.5,160.33,93.17"/><path class="cls-2" d="M449.46,451.92c14.83.33,28.17-57.67,28.17-57.67h37.83c-.83,19.67-14.17,47.67-14.17,47.67,27.5,1,63.67-47.67,63.67-47.67h44.83S553,487.75,449.46,487.42"/><path class="cls-2" d="M448.54,148.08c14.83-.33,28.17,57.67,28.17,57.67h37.83c-.83-19.67-14.17-47.67-14.17-47.67,27.5-1,63.67,47.67,63.67,47.67h44.83S552,112.25,448.54,112.58"/><path class="cls-2" d="M449.62,148.08c-14.83-.33-28.17,57.67-28.17,57.67H383.62c.83-19.67,14.17-47.67,14.17-47.67-27.5-1-63.67,47.67-63.67,47.67H289.29s56.83-93.5,160.33-93.17"/><path class="cls-2" d="M593,244.55v0Z"/><polygon class="cls-2" points="343.43 244.55 331.73 305.33 315.44 244.55 306.95 244.55 306.92 244.55 298.46 244.55 282.17 305.33 270.46 244.55 244.46 244.55 267.25 355.45 290.75 355.45 306.94 291.49 323.14 355.45 346.64 355.45 369.43 244.55 343.43 244.55"/><polygon class="cls-2" points="487 244.55 475.3 305.33 459.01 244.55 450.52 244.55 450.49 244.55 442.03 244.55 425.74 305.33 414.03 244.55 388.03 244.55 410.82 355.45 434.32 355.45 450.51 291.49 466.71 355.45 490.21 355.45 513 244.55 487 244.55"/><polygon class="cls-2" points="629.51 244.55 617.81 305.33 601.52 244.55 593.03 244.55 593 244.55 584.54 244.55 568.25 305.33 556.54 244.55 530.54 244.55 553.33 355.45 576.83 355.45 593.02 291.49 609.22 355.45 632.72 355.45 655.51 244.55 629.51 244.55"/></svg>