<svg id="Ebene_2" data-name="Ebene 2" xmlns="http://www.w3.org/2000/svg" xmlns:xlink="http://www.w3.org/1999/xlink" viewBox="0 0 900 600"><defs><style>.cls-1{fill:url(#Unbenannter_Verlauf_15);}.cls-2{fill:#fff;}</style><linearGradient id="Unbenannter_Verlauf_15" x1="943.78" y1="479.72" x2="-43.78" y2="120.28" gradientUnits="userSpaceOnUse"><stop offset="0" stop-color="#fce862"/><stop offset="1" stop-color="#eca81d"/></linearGradient></defs><title>Design</title><rect class="cls-1" width="900" height="600"/><path class="cls-2" d="M562.15,452.72H338.4a40.89,40.89,0,0,1-40.84-40.84V188.12a40.89,40.89,0,0,1,40.84-40.84H562.15A40.89,40.89,0,0,1,603,188.12V411.88A40.89,40.89,0,0,1,562.15,452.72ZM338.4,185.93a2.25,2.25,0,0,0-2.2,2.2V411.88a2.25,2.25,0,0,0,2.2,2.2H562.15a2.25,2.25,0,0,0,2.2-2.2V188.12a2.25,2.25,0,0,0-2.2-2.2Z"/><rect class="cls-2" x="355.24" y="91.03" width="38.93" height="38.93"/><rect class="cls-2" x="430.81" y="91.03" width="38.93" height="38.93"/><rect class="cls-2" x="506.48" y="91.03" width="38.93" height="38.93"/><rect class="cls-2" x="619.59" y="204.92" width="38.93" height="38.93" transform="translate(863.43 -414.67) rotate(90)"/><rect class="cls-2" x="619.59" y="280.49" width="38.93" height="38.93" transform="translate(939 -339.1) rotate(90)"/><rect class="cls-2" x="619.59" y="356.15" width="38.93" height="38.93" transform="translate(1014.67 -263.43) rotate(90)"/><rect class="cls-2" x="241.49" y="204.87" width="38.93" height="38.93" transform="translate(485.28 -36.62) rotate(90)"/><rect class="cls-2" x="241.49" y="280.44" width="38.93" height="38.93" transform="translate(560.85 38.95) rotate(90)"/><rect class="cls-2" x="241.49" y="356.11" width="38.93" height="38.93" transform="translate(636.52 114.62) rotate(90)"/><rect class="cls-2" x="506.43" y="470.04" width="38.93" height="38.93" transform="translate(1051.78 979.01) rotate(180)"/><rect class="cls-2" x="430.86" y="470.04" width="38.93" height="38.93" transform="translate(900.64 979.01) rotate(180)"/><rect class="cls-2" x="355.19" y="470.04" width="38.93" height="38.93" transform="translate(749.31 979.01) rotate(180)"/><path class="cls-2" d="M503.63,353.8H396.92V247.08H503.63Zm-72.46-34.26h38.2v-38.2h-38.2Z"/></svg>