<svg id="Ebene_2" data-name="Ebene 2" xmlns="http://www.w3.org/2000/svg" xmlns:xlink="http://www.w3.org/1999/xlink" viewBox="0 0 900 600"><defs><style>.cls-1{fill:url(#Unbenannter_Verlauf_15);}.cls-2{fill:#fff;}</style><linearGradient id="Unbenannter_Verlauf_15" x1="943.78" y1="479.72" x2="-43.78" y2="120.28" gradientUnits="userSpaceOnUse"><stop offset="0" stop-color="#fce862"/><stop offset="1" stop-color="#eca81d"/></linearGradient></defs><title>Explain</title><rect class="cls-1" width="900" height="600"/><rect class="cls-2" x="562" y="142.67" width="56.33" height="36.67" transform="translate(1121.32 -142.47) rotate(135)"/><rect class="cls-2" x="282.58" y="420.93" width="56.33" height="36.67" transform="translate(841.09 530.14) rotate(135)"/><rect class="cls-2" x="562" y="420.83" width="56.33" height="36.67" transform="translate(483.39 -288.68) rotate(45)"/><rect class="cls-2" x="282.83" y="142.67" width="56.33" height="36.67" transform="translate(204.93 -172.75) rotate(45)"/><rect class="cls-2" x="421.83" y="84" width="56.33" height="36.67" transform="translate(552.33 -347.67) rotate(90)"/><rect class="cls-2" x="225.33" y="282.33" width="56.33" height="36.67"/><rect class="cls-2" x="618.33" y="281.67" width="56.33" height="36.67"/><path class="cls-2" d="M469.65,504.5H430.26a36.78,36.78,0,0,1-36.74-36.74v-47.9a132.66,132.66,0,0,1-76-119.86c0-73,59.32-132.47,132.24-132.47S582,227,582,300A132.67,132.67,0,0,1,506.1,419.82l.29,47.71a36.74,36.74,0,0,1-36.74,37Zm-38.13-38h36.87l-.45-72.82,12.81-4.48A94.59,94.59,0,0,0,544,300c0-52.09-42.28-94.47-94.24-94.47S355.53,247.91,355.53,300a94.59,94.59,0,0,0,63.26,89.2l12.73,4.45Z"/></svg>