<svg width="28" height="28" viewBox="0 0 28 28" fill="none" xmlns="http://www.w3.org/2000/svg">
<path d="M5.0918 15.5977C5.09961 15.1328 5.15234 14.7656 5.25 14.4961C5.34766 14.2266 5.54688 13.9277 5.84766 13.5996L6.61523 12.8086C6.94336 12.4375 7.10742 12.0391 7.10742 11.6133C7.10742 11.2031 7 10.8828 6.78516 10.6523C6.57031 10.418 6.25781 10.3008 5.84766 10.3008C5.44922 10.3008 5.12891 10.4062 4.88672 10.6172C4.64453 10.8281 4.52344 11.1113 4.52344 11.4668H3.43945C3.44727 10.834 3.67188 10.3242 4.11328 9.9375C4.55859 9.54688 5.13672 9.35156 5.84766 9.35156C6.58594 9.35156 7.16016 9.55078 7.57031 9.94922C7.98438 10.3438 8.19141 10.8867 8.19141 11.5781C8.19141 12.2617 7.875 12.9355 7.24219 13.5996L6.60352 14.2324C6.31836 14.5488 6.17578 15.0039 6.17578 15.5977H5.0918ZM5.04492 17.4551C5.04492 17.2793 5.09766 17.1328 5.20312 17.0156C5.3125 16.8945 5.47266 16.834 5.68359 16.834C5.89453 16.834 6.05469 16.8945 6.16406 17.0156C6.27344 17.1328 6.32812 17.2793 6.32812 17.4551C6.32812 17.6309 6.27344 17.7773 6.16406 17.8945C6.05469 18.0078 5.89453 18.0645 5.68359 18.0645C5.47266 18.0645 5.3125 18.0078 5.20312 17.8945C5.09766 17.7773 5.04492 17.6309 5.04492 17.4551ZM10.7637 15.5977C10.7715 15.1328 10.8242 14.7656 10.9219 14.4961C11.0195 14.2266 11.2188 13.9277 11.5195 13.5996L12.2871 12.8086C12.6152 12.4375 12.7793 12.0391 12.7793 11.6133C12.7793 11.2031 12.6719 10.8828 12.457 10.6523C12.2422 10.418 11.9297 10.3008 11.5195 10.3008C11.1211 10.3008 10.8008 10.4062 10.5586 10.6172C10.3164 10.8281 10.1953 11.1113 10.1953 11.4668H9.11133C9.11914 10.834 9.34375 10.3242 9.78516 9.9375C10.2305 9.54688 10.8086 9.35156 11.5195 9.35156C12.2578 9.35156 12.832 9.55078 13.2422 9.94922C13.6562 10.3438 13.8633 10.8867 13.8633 11.5781C13.8633 12.2617 13.5469 12.9355 12.9141 13.5996L12.2754 14.2324C11.9902 14.5488 11.8477 15.0039 11.8477 15.5977H10.7637ZM10.7168 17.4551C10.7168 17.2793 10.7695 17.1328 10.875 17.0156C10.9844 16.8945 11.1445 16.834 11.3555 16.834C11.5664 16.834 11.7266 16.8945 11.8359 17.0156C11.9453 17.1328 12 17.2793 12 17.4551C12 17.6309 11.9453 17.7773 11.8359 17.8945C11.7266 18.0078 11.5664 18.0645 11.3555 18.0645C11.1445 18.0645 10.9844 18.0078 10.875 17.8945C10.7695 17.7773 10.7168 17.6309 10.7168 17.4551Z" fill="black"/>
<path d="M18 14H21.5H25" stroke="black"/>
</svg>
