<svg width="28" height="28" viewBox="0 0 28 28" fill="none" xmlns="http://www.w3.org/2000/svg">
<path d="M18.3653 2.99997L19.3377 3.9666L18.3653 4.93323L15.187 4.93323L14.2058 3.9666L15.187 2.99997L18.3653 2.99997Z" fill="#BB2700"/>
<path d="M18.3653 13.4278L19.3377 14.3945L18.3653 15.3611L15.187 15.3611L14.2058 14.3945L15.187 13.4278L18.3653 13.4278Z" fill="#BB2700"/>
<path d="M18.3653 23.7972L19.3377 24.7638L18.3653 25.7305L15.187 25.7305L14.2058 24.7638L15.187 23.7972L18.3653 23.7972Z" fill="#BB2700"/>
<path d="M12.5069 13.4278L13.4794 14.3945L12.5069 15.3611L9.32864 15.3611L8.34745 14.3945L9.32864 13.4278L12.5069 13.4278Z" fill="#BB2700"/>
<path d="M12.5069 23.7972L13.4794 24.7638L12.5069 25.7305L9.32864 25.7305L8.34745 24.7638L9.32864 23.7972L12.5069 23.7972Z" fill="#BB2700"/>
<path d="M12.5069 3.05856L13.4794 4.02519L12.5069 4.99182L9.32864 4.99182L8.34745 4.02519L9.32864 3.05856L12.5069 3.05856Z" fill="#BB2700"/>
<path d="M18.7167 5.20266L19.6834 4.23022L20.65 5.20266L20.65 13.0676L19.6834 14.0488L18.7167 13.0676L18.7167 5.20266Z" fill="#BB2700"/>
<path d="M18.7167 15.5719L19.6834 14.5995L20.65 15.5719L20.65 23.4369L19.6834 24.4181L18.7167 23.4369L18.7167 15.5719Z" fill="#BB2700"/>
<path d="M7 5.20266L7.96663 4.23022L8.93326 5.20266L8.93326 13.0676L7.96663 14.0488L7 13.0676L7 5.20266Z" fill="#BB2700"/>
<path d="M7 15.5719L7.96663 14.5995L8.93326 15.5719L8.93326 23.4369L7.96663 24.4181L7 23.4369L7 15.5719Z" fill="#BB2700"/>
<path d="M12.8584 5.20266L13.825 4.23022L14.7916 5.20266L14.7916 13.0676L13.825 14.0488L12.8584 13.0676L12.8584 5.20266Z" fill="#BB2700"/>
<path d="M12.8584 15.5719L13.825 14.5995L14.7916 15.5719L14.7916 23.4369L13.825 24.4181L12.8584 23.4369L12.8584 15.5719Z" fill="#BB2700"/>
<path d="M9.46051 5.40186V7.15937L11.218 13.0177H12.3897V11.2602L10.6322 5.40186H9.46051Z" fill="#BB2700"/>
<path d="M12.3897 15.7712V17.5288L10.6322 23.3871H9.46051V21.6296L11.218 15.7712H12.3897Z" fill="#BB2700"/>
<path d="M18.2481 5.40186V7.15937L16.4906 13.0177H15.3189V11.2602L17.0764 5.40186H18.2481Z" fill="#BB2700"/>
<path d="M15.3189 15.7712V17.5288L17.0764 23.3871H18.2481V21.6296L16.4906 15.7712H15.3189Z" fill="#BB2700"/>
</svg>
