<svg width="28" height="28" viewBox="0 0 28 28" fill="none" xmlns="http://www.w3.org/2000/svg">
<mask id="path-1-inside-1" fill="white">
<path fill-rule="evenodd" clip-rule="evenodd" d="M16.2118 9.89433H6.2514L6.25134 18.1055L16.2117 18.1055L21.9078 22V5.99999L16.2118 9.89433Z"/>
</mask>
<path d="M16.2118 9.89433L16.7762 10.7198L16.521 10.8943H16.2118V9.89433ZM6.2514 9.89433L5.2514 9.89432L5.25141 8.89433H6.2514V9.89433ZM6.25134 18.1055L6.25134 19.1055L5.25134 19.1055L5.25134 18.1055L6.25134 18.1055ZM16.2117 18.1055L16.2117 17.1055L16.5209 17.1055L16.7761 17.28L16.2117 18.1055ZM21.9078 22H22.9078V23.8951L21.3434 22.8255L21.9078 22ZM21.9078 5.99999L21.3434 5.17449L22.9078 4.10491V5.99999H21.9078ZM16.2118 10.8943H6.2514V8.89433H16.2118V10.8943ZM7.2514 9.89433L7.25134 18.1055L5.25134 18.1055L5.2514 9.89432L7.2514 9.89433ZM6.25134 17.1055L16.2117 17.1055L16.2117 19.1055L6.25134 19.1055L6.25134 17.1055ZM16.7761 17.28L22.4722 21.1745L21.3434 22.8255L15.6473 18.931L16.7761 17.28ZM20.9078 22V5.99999H22.9078V22H20.9078ZM22.4722 6.82549L16.7762 10.7198L15.6474 9.06882L21.3434 5.17449L22.4722 6.82549Z" fill="black" mask="url(#path-1-inside-1)"/>
<path d="M2 14H7" stroke="black"/>
<path d="M21.5 14H26" stroke="black"/>
</svg>
