<svg width="28" height="28" viewBox="0 0 28 28" fill="none" xmlns="http://www.w3.org/2000/svg">
<path d="M9.05859 14.3613C9.05859 15.6309 8.8418 16.5742 8.4082 17.1914C7.97461 17.8086 7.29688 18.1172 6.375 18.1172C5.46484 18.1172 4.79102 17.8164 4.35352 17.2148C3.91602 16.6094 3.68945 15.707 3.67383 14.5078V13.0605C3.67383 11.8066 3.89062 10.875 4.32422 10.2656C4.75781 9.65625 5.4375 9.35156 6.36328 9.35156C7.28125 9.35156 7.95703 9.64648 8.39062 10.2363C8.82422 10.8223 9.04688 11.7285 9.05859 12.9551V14.3613ZM7.97461 12.8789C7.97461 11.9609 7.8457 11.293 7.58789 10.875C7.33008 10.4531 6.92188 10.2422 6.36328 10.2422C5.80859 10.2422 5.4043 10.4512 5.15039 10.8691C4.89648 11.2871 4.76562 11.9297 4.75781 12.7969V14.5312C4.75781 15.4531 4.89062 16.1348 5.15625 16.5762C5.42578 17.0137 5.83203 17.2324 6.375 17.2324C6.91016 17.2324 7.30664 17.0254 7.56445 16.6113C7.82617 16.1973 7.96289 15.5449 7.97461 14.6543V12.8789ZM14.0098 18H12.9199V10.7754L10.7344 11.5781V10.5938L13.8398 9.42773H14.0098V18Z" fill="black"/>
<path d="M18 14H21.5H25" stroke="black"/>
</svg>
