<svg width="28" height="28" viewBox="0 0 28 28" fill="none" xmlns="http://www.w3.org/2000/svg">
<g clip-path="url(#clip0)">
<rect x="8.5" y="5.5" width="2" height="2" fill="#D84942"/>
<rect x="11.5" y="5.5" width="2" height="2" fill="#D84942"/>
<rect x="14.5" y="5.5" width="2" height="2" fill="#D84942"/>
<rect x="17.5" y="5.5" width="2" height="2" fill="#D84942"/>
<rect x="8.5" y="8.5" width="2" height="2" fill="#D84942"/>
<rect x="11.5" y="8.5" width="2" height="2" fill="#D84942"/>
<rect x="14.5" y="8.5" width="2" height="2" fill="#D84942"/>
<rect x="17.5" y="8.5" width="2" height="2" fill="#D84942"/>
<rect x="8.5" y="11.5" width="2" height="2" fill="#D84942"/>
<rect x="11.5" y="11.5" width="2" height="2" fill="#D84942"/>
<rect x="14.5" y="11.5" width="2" height="2" fill="#D84942"/>
<rect x="17.5" y="11.5" width="2" height="2" fill="#D84942"/>
<rect x="8.5" y="14.5" width="2" height="2" fill="#D84942"/>
<rect x="11.5" y="14.5" width="2" height="2" fill="#D84942"/>
<rect x="14.5" y="14.5" width="2" height="2" fill="#D84942"/>
<rect x="17.5" y="14.5" width="2" height="2" fill="#D84942"/>
<rect x="8.5" y="17.5" width="2" height="2" fill="#D84942"/>
<rect x="11.5" y="17.5" width="2" height="2" fill="#D84942"/>
<rect x="14.5" y="17.5" width="2" height="2" fill="#D84942"/>
<rect x="17.5" y="17.5" width="2" height="2" fill="#D84942"/>
<rect x="8.5" y="20.5" width="2" height="2" fill="#D84942"/>
<rect x="11.5" y="20.5" width="2" height="2" fill="#D84942"/>
<rect x="14.5" y="20.5" width="2" height="2" fill="#D84942"/>
<rect x="17.5" y="20.5" width="2" height="2" fill="#D84942"/>
</g>
<defs>
<clipPath id="clip0">
<rect width="28" height="28" fill="white"/>
</clipPath>
</defs>
</svg>
