<svg width="28" height="28" viewBox="0 0 28 28" fill="none" xmlns="http://www.w3.org/2000/svg">
<path d="M10.165 17.1951V18H6.43262V17.1951H10.165ZM6.62744 10.5352V18H5.63794V10.5352H6.62744ZM15.292 10.5352H16.2764V15.5852C16.2764 16.1458 16.1516 16.6123 15.9021 16.9849C15.6526 17.3574 15.321 17.6377 14.9075 17.8257C14.4973 18.0103 14.0513 18.1025 13.5693 18.1025C13.0635 18.1025 12.6055 18.0103 12.1953 17.8257C11.7886 17.6377 11.4656 17.3574 11.2263 16.9849C10.9905 16.6123 10.8726 16.1458 10.8726 15.5852V10.5352H11.8518V15.5852C11.8518 15.9749 11.9236 16.2961 12.0671 16.5491C12.2107 16.802 12.4106 16.99 12.667 17.113C12.9268 17.2361 13.2275 17.2976 13.5693 17.2976C13.9146 17.2976 14.2153 17.2361 14.4717 17.113C14.7314 16.99 14.9331 16.802 15.0767 16.5491C15.2202 16.2961 15.292 15.9749 15.292 15.5852V10.5352ZM20.5881 10.5352V18H19.614V10.5352H20.5881ZM22.9875 10.5352V11.3452H17.2197V10.5352H22.9875Z" fill="black"/>
<path d="M1.5 23V5H26.5V23H1.5Z" stroke="black"/>
</svg>
