<svg width="28" height="28" viewBox="0 0 28 28" fill="none" xmlns="http://www.w3.org/2000/svg">
<g clip-path="url(#clip0)">
<path fill-rule="evenodd" clip-rule="evenodd" d="M14.5135 4.02831C14.3975 3.85444 14.2024 3.75 13.9934 3.75C13.7845 3.75 13.5893 3.85444 13.4734 4.02831L10.105 9.08088C9.91354 9.36809 9.99115 9.75613 10.2784 9.9476C10.5656 10.1391 10.9536 10.0615 11.1451 9.77426L13.4934 6.25173V22.9011C13.4934 23.1772 13.7173 23.4011 13.9934 23.4011C14.2696 23.4011 14.4934 23.1772 14.4934 22.9011V6.25173L16.8418 9.77426C17.0332 10.0615 17.4213 10.1391 17.7085 9.9476C17.9957 9.75613 18.0733 9.36809 17.8818 9.08088L14.5135 4.02831Z" fill="black"/>
</g>
<defs>
<clipPath id="clip0">
<rect width="28" height="28" fill="white"/>
</clipPath>
</defs>
</svg>
