<svg width="28" height="28" viewBox="0 0 28 28" fill="none" xmlns="http://www.w3.org/2000/svg">
<path d="M6.36084 14.9802H4.60742V18H3.61792V10.5352H6.08911C6.92993 10.5352 7.57593 10.7266 8.0271 11.1094C8.48169 11.4922 8.70898 12.0493 8.70898 12.7808C8.70898 13.2456 8.58252 13.6506 8.32959 13.9958C8.08008 14.3411 7.73145 14.5991 7.28369 14.77L9.03711 17.9385V18H7.98096L6.36084 14.9802ZM4.60742 14.1753H6.11987C6.60864 14.1753 6.99658 14.0488 7.28369 13.7959C7.57422 13.543 7.71948 13.2046 7.71948 12.7808C7.71948 12.3193 7.58105 11.9656 7.3042 11.7195C7.03076 11.4734 6.63428 11.3486 6.11475 11.3452H4.60742V14.1753ZM14.2153 16.0518H11.0879L10.3855 18H9.37036L12.2209 10.5352H13.0823L15.938 18H14.928L14.2153 16.0518ZM11.3853 15.2417H13.9231L12.6516 11.7502L11.3853 15.2417ZM18.2144 10.5352L20.6548 16.626L23.0952 10.5352H24.3718V18H23.3875V15.093L23.4797 11.9553L21.0291 18H20.2754L17.8298 11.9707L17.9272 15.093V18H16.9429V10.5352H18.2144Z" fill="black"/>
<path d="M1.5 23V5H26.5V23H1.5Z" stroke="black"/>
</svg>
