<svg width="28" height="28" viewBox="0 0 28 28" fill="none" xmlns="http://www.w3.org/2000/svg">
<path d="M6.17627 14.9802H4.42285V18H3.43335V10.5352H5.90454C6.74536 10.5352 7.39136 10.7266 7.84253 11.1094C8.29712 11.4922 8.52441 12.0493 8.52441 12.7808C8.52441 13.2456 8.39795 13.6506 8.14502 13.9958C7.89551 14.3411 7.54688 14.5991 7.09912 14.77L8.85254 17.9385V18H7.79639L6.17627 14.9802ZM4.42285 14.1753H5.9353C6.42407 14.1753 6.81201 14.0488 7.09912 13.7959C7.38965 13.543 7.53491 13.2046 7.53491 12.7808C7.53491 12.3193 7.39648 11.9656 7.11963 11.7195C6.84619 11.4734 6.44971 11.3486 5.93018 11.3452H4.42285V14.1753ZM15.6509 14.5085C15.6509 15.24 15.5278 15.8792 15.2817 16.426C15.0356 16.9695 14.687 17.3848 14.2358 17.6719C13.7847 17.959 13.2583 18.1025 12.6567 18.1025C12.0688 18.1025 11.5476 17.959 11.093 17.6719C10.6384 17.3813 10.2847 16.9695 10.0317 16.4363C9.78223 15.8997 9.65405 15.2793 9.64722 14.5752V14.0369C9.64722 13.3191 9.77197 12.6851 10.0215 12.1348C10.271 11.5845 10.623 11.1641 11.0776 10.8735C11.5356 10.5796 12.0586 10.4326 12.6465 10.4326C13.2446 10.4326 13.771 10.5779 14.2256 10.8684C14.6836 11.1555 15.0356 11.5742 15.2817 12.1245C15.5278 12.6714 15.6509 13.3088 15.6509 14.0369V14.5085ZM14.6716 14.0266C14.6716 13.1414 14.4939 12.4629 14.1384 11.9912C13.783 11.5161 13.2856 11.2786 12.6465 11.2786C12.0244 11.2786 11.5339 11.5161 11.175 11.9912C10.8196 12.4629 10.6367 13.1191 10.6265 13.96V14.5085C10.6265 15.3665 10.8059 16.0415 11.1648 16.5337C11.5271 17.0225 12.0244 17.2668 12.6567 17.2668C13.2925 17.2668 13.7847 17.0361 14.1333 16.5747C14.4819 16.1099 14.6614 15.4451 14.6716 14.5803V14.0266ZM18.3989 10.5352L20.8394 16.626L23.2798 10.5352H24.5564V18H23.572V15.093L23.6643 11.9553L21.2136 18H20.46L18.0144 11.9707L18.1118 15.093V18H17.1274V10.5352H18.3989Z" fill="black"/>
<path d="M1.5 23V5H26.5V23H1.5Z" stroke="black"/>
</svg>
