<svg width="28" height="28" viewBox="0 0 28 28" fill="none" xmlns="http://www.w3.org/2000/svg">
<g clip-path="url(#clip0)">
<path fill-rule="evenodd" clip-rule="evenodd" d="M18.7061 1C18.9132 1 19.0811 1.16789 19.0811 1.375V6.72766C21.9505 7.83663 23.9857 10.622 23.9857 13.8826C23.9857 17.1433 21.9505 19.9287 19.0811 21.0376V26.5161C19.0811 26.7232 18.9132 26.8911 18.7061 26.8911C18.499 26.8911 18.3311 26.7232 18.3311 26.5161V21.2836C17.6895 21.4577 17.0145 21.5507 16.3177 21.5507C14.2227 21.5507 12.3239 20.7105 10.9399 19.3487H4.25C4.04289 19.3487 3.875 19.1809 3.875 18.9737C3.875 18.7666 4.04289 18.5987 4.25 18.5987H10.271C9.25508 17.298 8.64969 15.661 8.64969 13.8826C8.64969 9.64772 12.0828 6.21462 16.3177 6.21462C17.0145 6.21462 17.6895 6.30755 18.3311 6.48169V1.375C18.3311 1.16789 18.499 1 18.7061 1ZM18.3311 7.26218C17.694 7.06868 17.018 6.96462 16.3177 6.96462C12.497 6.96462 9.39969 10.0619 9.39969 13.8826C9.39969 15.7052 10.1044 17.3631 11.2563 18.5987H13.3029V8.91732C13.3029 8.71021 13.4708 8.54232 13.6779 8.54232C13.885 8.54232 14.0529 8.71021 14.0529 8.91732V18.9737C14.0529 19.1809 13.885 19.3487 13.6779 19.3487H12.0768C13.2481 20.2588 14.7196 20.8007 16.3177 20.8007C17.018 20.8007 17.694 20.6966 18.3311 20.5031V18.0917H16.567V18.9737C16.567 19.1809 16.3991 19.3487 16.192 19.3487C15.9849 19.3487 15.817 19.1809 15.817 18.9737V17.7167V16.4596C15.817 16.2525 15.9849 16.0846 16.192 16.0846C16.3991 16.0846 16.567 16.2525 16.567 16.4596V17.3417H18.7061C18.9132 17.3417 19.0811 17.5096 19.0811 17.7167V20.2267C21.5265 19.16 23.2357 16.721 23.2357 13.8826C23.2357 11.0443 21.5265 8.60526 19.0811 7.5386V10.1744C19.0811 10.3815 18.9132 10.5494 18.7061 10.5494H16.567V11.4314C16.567 11.6385 16.3991 11.8064 16.192 11.8064C15.9849 11.8064 15.817 11.6385 15.817 11.4314V10.1744V8.91732C15.817 8.71021 15.9849 8.54232 16.192 8.54232C16.3991 8.54232 16.567 8.71021 16.567 8.91732V9.79937H18.3311V7.26218ZM16.192 12.3135C16.3991 12.3135 16.567 12.4814 16.567 12.6885V13.8774L17.1682 13.6041L18.551 12.9756L19.0811 12.7346V13.317V13.5705H21.8488V14.3205H19.0811V14.5741V15.1564L18.551 14.9154L17.1682 14.2869L16.567 14.0136V15.2026C16.567 15.4097 16.3991 15.5776 16.192 15.5776C15.9849 15.5776 15.817 15.4097 15.817 15.2026V12.6885C15.817 12.4814 15.9849 12.3135 16.192 12.3135Z" fill="black"/>
</g>
<defs>
<clipPath id="clip0">
<rect width="28" height="28" fill="white"/>
</clipPath>
</defs>
</svg>
