<svg width="28" height="28" viewBox="0 0 28 28" fill="none" xmlns="http://www.w3.org/2000/svg">
<path d="M21.5 23H16L9.75 16.9V8.55M9.75 5.5V8.55M9.75 8.55L16 14.65H21.5" stroke="black"/>
<circle cx="9.8" cy="6.19995" r="1.5" fill="black"/>
<path d="M3.5 6.25H25" stroke="black" stroke-width="1.6"/>
<path d="M19.9917 16.4961V21.5H19.3594V17.2856L18.0845 17.7505V17.1797L19.8926 16.4961H19.9917Z" fill="black"/>
<path d="M20.8376 10.6152V11.374C20.8376 11.7819 20.8011 12.126 20.7282 12.4062C20.6553 12.6865 20.5505 12.9121 20.4138 13.083C20.2771 13.2539 20.1119 13.3781 19.9182 13.4556C19.7268 13.5308 19.5103 13.5684 19.2688 13.5684C19.0773 13.5684 18.9008 13.5444 18.739 13.4966C18.5772 13.4487 18.4314 13.3724 18.3015 13.2676C18.1739 13.1605 18.0645 13.0215 17.9733 12.8506C17.8822 12.6797 17.8127 12.4723 17.7648 12.2285C17.717 11.9847 17.6931 11.6999 17.6931 11.374V10.6152C17.6931 10.2074 17.7295 9.86556 17.8024 9.58984C17.8776 9.31413 17.9836 9.0931 18.1203 8.92676C18.257 8.75814 18.4211 8.63737 18.6125 8.56445C18.8062 8.49154 19.0227 8.45508 19.2619 8.45508C19.4556 8.45508 19.6333 8.479 19.7951 8.52686C19.9592 8.57243 20.105 8.64648 20.2326 8.74902C20.3602 8.84928 20.4685 8.98372 20.5573 9.15234C20.6485 9.31868 20.718 9.52262 20.7658 9.76416C20.8137 10.0057 20.8376 10.2894 20.8376 10.6152ZM20.2019 11.4766V10.5093C20.2019 10.286 20.1882 10.09 20.1608 9.92139C20.1358 9.75049 20.0982 9.60465 20.048 9.48389C19.9979 9.36312 19.9341 9.26514 19.8566 9.18994C19.7814 9.11475 19.6937 9.06006 19.5935 9.02588C19.4955 8.98942 19.385 8.97119 19.2619 8.97119C19.1115 8.97119 18.9782 8.99967 18.862 9.05664C18.7458 9.11133 18.6478 9.19906 18.5681 9.31982C18.4906 9.44059 18.4314 9.59896 18.3903 9.79492C18.3493 9.99089 18.3288 10.229 18.3288 10.5093V11.4766C18.3288 11.6999 18.3413 11.897 18.3664 12.0679C18.3938 12.2388 18.4336 12.3869 18.486 12.5122C18.5384 12.6353 18.6022 12.7367 18.6774 12.8164C18.7526 12.8962 18.8392 12.9554 18.9372 12.9941C19.0375 13.0306 19.148 13.0488 19.2688 13.0488C19.4237 13.0488 19.5593 13.0192 19.6755 12.96C19.7917 12.9007 19.8885 12.8084 19.966 12.6831C20.0458 12.5555 20.105 12.3926 20.1438 12.1943C20.1825 11.9938 20.2019 11.7546 20.2019 11.4766Z" fill="black"/>
</svg>
