<svg width="28" height="28" viewBox="0 0 28 28" fill="none" xmlns="http://www.w3.org/2000/svg">
<path d="M10 5.5C14.8493 5.5 17.9712 7.43333 19.8859 9.46771C20.8476 10.4895 21.5079 11.5407 21.9262 12.3924C22.1354 12.8182 22.2823 13.1904 22.3758 13.4799C22.4226 13.6248 22.4549 13.7455 22.475 13.8393C22.4851 13.8861 22.4916 13.9239 22.4956 13.9529C22.4975 13.9673 22.4986 13.9786 22.4993 13.9869L22.4999 13.9966L22.5 13.9991C22.5 13.9998 22.5 13.9992 22.5 13.9998L22.5 13.9999C22.5 14 22.5 14 22.5 14C22.5 14.0541 22.4766 14.2345 22.3909 14.5379C22.309 14.8278 22.1788 15.1995 21.9889 15.624C21.6091 16.473 20.9961 17.5202 20.068 18.5381C18.2228 20.5619 15.1058 22.5 10 22.5H4.71974C6.67797 17.003 6.67797 10.9971 4.71974 5.50002L10 5.5Z" stroke="black"/>
<path d="M22.5 14H28M5.5 8.5H0M5.5 19.5H0" stroke="black"/>
</svg>
